<?xml version="1.0" encoding="UTF-8" standalone="no"?>
<!-- Created with Inkscape (http://www.inkscape.org/) -->

<svg
   width="53.699581mm"
   height="47.503475mm"
   viewBox="0 0 53.699581 47.503475"
   version="1.1"
   id="svg5"
   inkscape:version="1.1.1 (3bf5ae0d25, 2021-09-20)"
   sodipodi:docname="drawing.svg"
   xmlns:inkscape="http://www.inkscape.org/namespaces/inkscape"
   xmlns:sodipodi="http://sodipodi.sourceforge.net/DTD/sodipodi-0.dtd"
   xmlns="http://www.w3.org/2000/svg"
   xmlns:svg="http://www.w3.org/2000/svg">
  <sodipodi:namedview
     id="namedview7"
     pagecolor="#ffffff"
     bordercolor="#666666"
     borderopacity="1.0"
     inkscape:pageshadow="2"
     inkscape:pageopacity="0.0"
     inkscape:pagecheckerboard="0"
     inkscape:document-units="mm"
     showgrid="false"
     inkscape:zoom="0.64052329"
     inkscape:cx="130.36216"
     inkscape:cy="556.57617"
     inkscape:window-width="1920"
     inkscape:window-height="1147"
     inkscape:window-x="-8"
     inkscape:window-y="-8"
     inkscape:window-maximized="1"
     inkscape:current-layer="layer1" />
  <defs
     id="defs2" />
  <g
     inkscape:label="Layer 1"
     inkscape:groupmode="layer"
     id="layer1"
     style="display:inline"
     transform="translate(-1.1797733,-1.1797733)">
    <ellipse
       style="fill:#ff0000;fill-rule:evenodd;stroke-width:0.264583"
       id="path31"
       cx="28.029564"
       cy="24.931511"
       rx="26.849791"
       ry="23.751738" />
    <path
       style="fill:#000000;fill-opacity:1;fill-rule:nonzero;stroke:none;stroke-width:0.126033"
       id="path66"
       d="m 4.76794,16.783161 c 5.371542,4.03582 10.594647,8.27523 15.801703,12.53105 3.256584,2.63344 6.465308,5.3279 9.685059,8.00836 0.52558,0.37829 1.077303,1.03311 1.785239,1.00252 0.31223,-0.0135 0.497176,-0.12467 0.782649,-0.24571 0.146428,-0.0829 0.295303,-0.16135 0.439284,-0.24865 0.681638,-0.41327 1.366203,-0.82186 2.037345,-1.25288 0.234594,-0.15067 0.452276,-0.3275 0.678413,-0.49125 0.324318,-0.21708 0.644571,-0.44072 0.972952,-0.65125 1.255182,-0.80474 1.425896,-1.18705 1.187758,-0.69207 2.046945,-1.11192 4.250723,-1.86157 6.365255,-2.81767 0.463882,-0.20975 0.932136,-0.41274 1.377527,-0.66124 0.900218,-0.50226 1.770442,-1.05933 2.65566,-1.58899 1.494609,-1.05549 2.65458,-2.49669 3.376545,-4.20611 0.102387,-0.24243 0.180711,-0.49486 0.271069,-0.74229 0.307782,-1.27233 0.269245,-2.6751 -0.395537,-3.8353 -0.146685,-0.256 -0.345046,-0.47677 -0.517571,-0.71515 -0.246854,-0.2185 -0.466262,-0.47484 -0.740568,-0.65549 -1.560108,-1.02746 -3.552467,-1.37556 -5.347038,-1.61507 -2.773284,-0.37014 -3.536498,-0.28365 -6.450637,-0.31918 -4.398272,0.11221 -8.785696,0.58237 -13.078797,1.58367 -0.750657,0.17508 -1.50067,0.35719 -2.238974,0.58096 -0.592956,0.17973 -1.167287,0.4189 -1.750931,0.62835 -0.839643,0.55176 -1.818925,0.92625 -2.51893,1.65526 -0.747003,0.77796 0.298992,2.12882 0.716974,2.52432 0.674014,0.63777 1.46593,1.13733 2.257684,1.61116 2.241357,1.34136 4.723443,2.35632 7.092677,3.41218 3.171568,1.33772 6.397014,2.53881 9.659912,3.61907 0.117472,0.0389 3.4819,1.11846 3.89631,1.18935 0.384315,0.0657 0.779205,-0.002 1.168808,-0.003 0.717767,-0.48425 1.603958,-0.77462 2.153301,-1.45274 0.451174,-0.55695 -0.466382,-2.90123 -0.533133,-3.07843 -0.865969,-2.29884 -2.095701,-4.43698 -3.273163,-6.57486 -1.503821,-2.34847 -2.985749,-4.95018 -5.179872,-6.71129 -0.26742,-0.21464 -0.564293,-0.38743 -0.846439,-0.58115 -1.256417,-0.75536 -2.409553,-0.90874 -3.824126,-0.74999 -0.997695,0.17348 -1.953447,0.53126 -2.921173,0.82696 -0.536697,0.14548 -0.274242,0.0872 -0.78641,0.17927 0,0 -1.463627,1.12914 -1.463627,1.12914 v 0 c 0.530621,-0.0772 0.260534,-0.0235 0.809333,-0.16593 0.966362,-0.29575 1.920028,-0.64846 2.90863,-0.8557 1.360784,-0.1985 2.575305,-0.0921 3.805357,0.60756 0.28361,0.18304 0.58117,0.34502 0.85083,0.54911 1.572529,1.19016 2.966322,3.03984 4.07183,4.66933 0.423127,0.62367 0.809922,1.27256 1.214882,1.90885 1.181069,2.12201 2.413913,4.25199 3.193083,6.57623 0.198863,0.5932 0.388892,1.19883 0.459572,1.82203 0.0429,0.37824 -0.373358,0.85342 -0.124163,1.13527 0.206296,0.23333 0.585624,-0.1881 0.878437,-0.28215 -0.400634,0.0301 -0.802958,0.13857 -1.201904,0.0903 -0.452816,-0.0548 -3.854589,-1.0487 -4.013197,-1.09704 -3.311502,-1.00936 -6.577396,-2.17634 -9.774202,-3.52209 -2.561087,-1.16715 -4.562138,-1.95849 -6.927356,-3.48462 -0.833444,-0.53777 -2.560879,-1.65818 -2.880831,-2.92274 -0.08453,-0.33406 0.253944,-0.67465 0.198878,-1.01516 -0.01966,-0.12154 -0.239163,0.0177 -0.358745,0.0266 0.596146,-0.22571 1.181804,-0.48315 1.788437,-0.67712 0.752052,-0.24046 1.517277,-0.43649 2.283285,-0.62477 4.301779,-1.05733 8.708353,-1.57314 13.128878,-1.66429 2.835444,0.0634 3.624282,-0.0156 6.319824,0.38326 1.736556,0.25696 3.64625,0.63268 5.145957,1.64318 0.26089,0.17578 0.472145,0.41917 0.708215,0.62875 0.163611,0.22778 0.35278,0.43834 0.490824,0.68334 0.635469,1.12782 0.653716,2.48738 0.329858,3.71104 -0.778081,2.09298 -1.788364,3.51831 -3.617469,4.80469 0.08205,-0.0386 0.327523,-0.15604 0.246169,-0.11587 -0.461859,0.22802 -0.919823,0.46484 -1.387725,0.67947 -1.590134,0.72939 -3.237356,1.31982 -4.828716,2.04582 -0.51965,0.23707 -1.027031,0.50157 -1.540547,0.75236 -1.664473,0.95918 -2.635679,1.47922 -4.099245,2.41508 -0.340974,0.21803 -0.67657,0.44488 -1.011477,0.67263 -0.239403,0.1628 -0.988448,0.57593 -0.711328,0.49892 0.387142,-0.1076 0.698994,-0.40461 1.054972,-0.59443 0.145143,-0.0774 -0.281373,0.17129 -0.42206,0.25693 -0.310017,0.15799 -0.691461,0.39489 -1.06043,0.3284 -0.554966,-0.10001 -0.995663,-0.60221 -1.455911,-0.87863 -3.355508,-2.56321 -6.665498,-5.18927 -9.967882,-7.82409 -3.026974,-2.41813 -6.05375,-4.83722 -9.052099,-7.29285 -1.553149,-1.27201 -3.6129214,-2.97481 -5.1609195,-4.32665 -0.4204207,-0.36715 -0.8253314,-0.75265 -1.2379974,-1.12898 0,0 -1.5482451,0.99184 -1.5482451,0.99184 z" />
  </g>
</svg>
